<?xml version="1.0" encoding="utf-8"?>
<svg xmlns="http://www.w3.org/2000/svg" width="40" height="40" viewBox="0 0 32 32" fill="none">
  <path d="M19.1486 27.4303C18.2462 27.7505 17.7324 27.952 16.8379 28.3247C19.2977 29.3683 20.4903 30.5609 23.6209 30.5609C30.1058 30.5609 33.1619 23.9269 31.5966 19.0819C31.5966 20.4236 31.1776 22.6598 29.2113 23.9269C25.8571 26.0886 22.801 26.3122 19.1486 27.4303Z" fill="url(#paint0_linear_156_13739)"/>
  <path d="M18.2538 10.8082C17.1357 8.94467 15.2722 9.16829 14.0796 10.7336L16.6139 6.33582C17.5084 4.69597 19.9682 0.745395 23.9187 4.17419C24.7387 6.26127 27.4221 9.83913 26.6021 14.0879C26.2294 16.3986 23.7696 18.1875 21.2353 18.9329C22.5025 18.4111 22.2043 17.3676 21.8316 16.7713L18.2538 10.8082Z" fill="url(#paint1_linear_156_13739)"/>
  <path d="M8.19092 31.1572C-0.679216 30.4118 -1.57369 21.4672 1.85511 16.6221C0.587945 20.8708 3.64404 23.4052 6.40198 23.3306C7.22191 23.2561 8.01535 23.1972 8.78723 23.107C10.278 22.9329 13.1458 21.0567 15.4212 20.2745C17.8064 19.4546 20.1598 19.4573 22.2788 18.5601C30.5526 15.0568 24.8876 6.55938 23.9186 4.17413L30.6271 16.324C32.7142 19.9764 31.298 22.4734 29.2854 23.9269C26.602 25.865 22.8005 26.36 19.1481 27.5048C14.154 29.0701 12.1415 31.1572 8.19092 31.1572Z" fill="url(#paint2_linear_156_13739)"/>
  <path d="M26.6766 12.8207C26.7049 13.7965 26.5119 14.7603 26.0941 15.6581C25.4861 16.9647 24.3047 18.1412 22.2497 19.0113C21.1986 19.4564 20.088 19.6788 18.9362 19.8928C17.7865 20.1065 16.5958 20.3117 15.3969 20.7238C14.2534 21.1169 12.962 21.7844 11.7768 22.3717C11.183 22.666 10.6157 22.9404 10.1042 23.1519C9.59173 23.3638 9.14069 23.5104 8.77855 23.5527C8.00888 23.6426 7.21877 23.7013 6.39826 23.7759C5.04162 23.812 3.57378 23.2062 2.62036 22.0695C1.95095 21.2713 1.5327 20.2086 1.58788 18.9164C1.6349 20.0082 2.02984 20.9182 2.62036 21.6222C3.57378 22.759 5.04162 23.3647 6.39826 23.3286C7.21877 23.2541 8.00888 23.1953 8.77855 23.1054C9.14069 23.0631 9.59173 22.9166 10.1042 22.7047C10.6157 22.4931 11.183 22.2187 11.7768 21.9245C12.962 21.3372 14.2534 20.6697 15.3969 20.2766C16.5958 19.8645 17.7865 19.6593 18.9362 19.4456C20.088 19.2316 21.1986 19.0092 22.2497 18.5641C24.3047 17.694 25.4861 16.5175 26.0941 15.2109C26.4479 14.4506 26.6527 13.6429 26.6766 12.8207Z" fill="white" fill-opacity="0.5"/>
  <path d="M16.0176 0C19.5955 0 22.5025 1.93801 23.9188 4.17418C20.1918 0.966315 17.8811 4.17418 16.614 6.33581L8.34013 20.6473C7.89289 21.5417 7.74381 22.6598 8.78737 23.1071L7.74381 23.2561L6.40212 23.3307C2.82424 23.3307 0.66263 20.051 1.85525 16.6222L8.78737 4.17418C9.60728 2.23617 12.9615 0 16.0176 0Z" fill="url(#paint3_linear_156_13739)"/>
  <path d="M30.5741 16.1379L30.6701 16.3095C31.6356 18.0745 31.7878 19.5752 31.4478 20.8206C31.0972 22.1044 30.2266 23.105 29.2113 23.8383C27.8591 24.8148 26.228 25.426 24.4833 25.9358C23.6109 26.1908 22.708 26.4209 21.7967 26.6584C20.8849 26.896 19.964 27.1413 19.0528 27.4269C16.5611 28.2079 14.8161 29.1177 13.1907 29.837C11.5656 30.5562 10.0636 31.0826 8.07329 31.0827H8.07009L8.06703 31.0824C4.49623 30.7823 2.20312 29.1597 0.960938 27.0054C2.26747 28.8585 4.45297 30.2144 7.68604 30.4861L7.68909 30.4863H7.6923C9.68266 30.4863 11.1846 29.9599 12.8097 29.2407C14.4351 28.5214 16.1801 27.6116 18.6718 26.8306C19.583 26.545 20.5039 26.2997 21.4158 26.0621C22.327 25.8245 23.2299 25.5945 24.1024 25.3395C25.847 24.8297 27.4781 24.2185 28.8303 23.242C29.8456 22.5087 30.7162 21.5081 31.0668 20.2243C31.3817 19.071 31.274 17.6987 30.4896 16.1003H30.5535L30.5741 16.1379Z" fill="white" fill-opacity="0.5"/>
  <defs>
    <linearGradient id="paint0_linear_156_13739" x1="32.1184" y1="19.6782" x2="20.1176" y2="28.6974" gradientUnits="userSpaceOnUse">
      <stop stop-color="#3534E9"/>
      <stop offset="1" stop-color="#1A2CA7"/>
    </linearGradient>
    <linearGradient id="paint1_linear_156_13739" x1="20.3823" y1="2.81641" x2="20.3823" y2="18.9329" gradientUnits="userSpaceOnUse">
      <stop stop-color="#260EB5"/>
      <stop offset="0.490385" stop-color="#2B10BD"/>
      <stop offset="1" stop-color="#310DBB"/>
    </linearGradient>
    <linearGradient id="paint2_linear_156_13739" x1="1.78057" y1="26.834" x2="30.6271" y2="17.5911" gradientUnits="userSpaceOnUse">
      <stop stop-color="#00C8D5"/>
      <stop offset="0.591346" stop-color="#2153E3"/>
      <stop offset="1" stop-color="#6321DD"/>
    </linearGradient>
    <linearGradient id="paint3_linear_156_13739" x1="19.7446" y1="-0.521772" x2="4.76226" y2="22.6598" gradientUnits="userSpaceOnUse">
      <stop stop-color="#01B3D9"/>
      <stop offset="0.170558" stop-color="#00C9E3"/>
      <stop offset="0.971154" stop-color="#0A52C0"/>
      <stop offset="1" stop-color="#0047B3"/>
    </linearGradient>
  </defs>
</svg>
